<svg width="2069" height="732" viewBox="0 0 2069 732" fill="none" xmlns="http://www.w3.org/2000/svg">
<path d="M229 97C118.543 97 29 186.543 29 297V576.278C29 607.605 54.3955 633 85.7224 633C117.049 633 142.445 607.605 142.445 576.278V546.109C142.445 498.121 181.347 459.219 229.336 459.219H237.812C279.033 459.219 314.141 451.629 343.135 436.449C348.57 433.621 349.444 426.369 345.11 422.039L322.471 399.425C311.255 388.221 293.972 386.625 278.908 391.568C266.954 395.491 254.518 397.48 242.1 397.465C211.716 397.491 181.112 385.819 157.928 362.642C134.735 339.482 123.042 308.92 123.068 278.55C123.032 248.207 134.734 217.637 157.927 194.477C181.112 171.3 211.715 159.628 242.1 159.645C272.493 159.628 303.087 171.3 326.272 194.477C349.474 217.637 361.167 248.207 361.132 278.551C361.146 289.783 359.515 301.023 356.295 311.907C351.204 329.118 352.924 348.695 365.622 361.379L380.056 375.797C388.964 384.696 403.753 383.816 409.944 372.852C425.315 345.633 433 314.227 433 278.633C433 243.039 425.402 211.633 410.206 184.414C395.185 157.021 373.352 135.647 344.707 120.293C316.062 104.764 281.391 97 240.694 97H229Z" fill="#0069CF"/>
<path d="M242.1 351.566C223.321 351.53 204.753 344.478 190.432 330.182C176.111 315.859 169.051 297.319 169.016 278.551C169.051 259.801 176.111 241.252 190.423 226.937C204.753 212.64 223.321 205.589 242.1 205.553C260.879 205.589 279.439 212.641 293.777 226.937C308.09 241.252 315.149 259.801 315.184 278.551C315.149 297.318 308.089 315.859 293.777 330.182C279.439 344.479 260.879 351.53 242.1 351.566Z" fill="#0069CF"/>
<path d="M387.077 636C374.657 636 363.654 633.712 354.068 629.135C344.699 624.559 337.291 618.348 331.844 610.502C326.615 602.439 324 593.286 324 583.043C324 571.274 327.05 562.012 333.151 555.257C339.252 548.501 349.056 543.706 362.565 540.873C376.074 537.822 394.049 536.297 416.491 536.297H434.466V563.756H416.491C407.993 563.756 400.912 564.41 395.247 565.717C389.8 566.807 385.769 568.659 383.155 571.274C380.54 573.672 379.233 576.832 379.233 580.754C379.233 585.767 380.976 589.908 384.462 593.177C388.166 596.446 393.395 598.08 400.15 598.08C405.597 598.08 410.39 596.881 414.53 594.484C418.887 592.087 422.373 588.818 424.988 584.677C427.603 580.319 428.91 575.306 428.91 569.64V531.72C428.91 523.874 426.84 518.317 422.7 515.048C418.778 511.779 411.915 510.145 402.11 510.145C396.881 510.145 390.999 510.799 384.462 512.106C377.926 513.196 370.627 515.266 362.565 518.317C356.682 520.497 351.671 520.823 347.531 519.298C343.391 517.772 340.123 515.157 337.727 511.452C335.548 507.748 334.458 503.716 334.458 499.357C334.676 494.999 336.092 490.858 338.707 486.935C341.539 483.012 345.788 479.961 351.453 477.782C361.911 473.859 371.498 471.244 380.213 469.937C389.147 468.629 397.317 467.975 404.725 467.975C422.591 467.975 437.298 470.59 448.846 475.821C460.612 480.833 469.327 488.679 474.992 499.357C480.875 509.818 483.816 523.33 483.816 539.892V605.926C483.816 615.514 481.528 622.815 476.953 627.828C472.377 632.84 465.732 635.346 457.017 635.346C448.083 635.346 441.22 632.84 436.427 627.828C431.851 622.815 429.564 615.514 429.564 605.926V597.426L431.524 602.003C430.435 608.977 427.929 614.97 424.008 619.982C420.086 624.994 414.965 628.917 408.647 631.75C402.328 634.583 395.138 636 387.077 636Z" fill="#0069CF"/>
<path d="M545.703 635.346C536.552 635.346 529.471 632.84 524.459 627.828C519.448 622.815 516.943 615.514 516.943 605.926V497.723C516.943 488.352 519.339 481.16 524.133 476.148C529.144 471.135 536.225 468.629 545.376 468.629C554.527 468.629 561.499 471.135 566.293 476.148C571.086 481.16 573.483 488.352 573.483 497.723V513.087L569.888 499.684C575.117 489.441 582.525 481.596 592.112 476.148C601.916 470.699 613.028 467.975 625.447 467.975C638.302 467.975 648.87 470.481 657.149 475.494C665.429 480.288 671.638 487.916 675.778 498.377C679.918 508.619 681.988 521.586 681.988 537.277V605.926C681.988 615.514 679.482 622.815 674.471 627.828C669.46 632.84 662.269 635.346 652.901 635.346C643.532 635.346 636.342 632.84 631.33 627.828C626.319 622.815 623.813 615.514 623.813 605.926V539.566C623.813 529.759 622.07 522.785 618.584 518.644C615.316 514.503 610.414 512.433 603.877 512.433C595.162 512.433 588.19 515.266 582.961 520.932C577.731 526.381 575.117 533.79 575.117 543.161V605.926C575.117 625.539 565.312 635.346 545.703 635.346Z" fill="#0069CF"/>
<path d="M799.462 636C783.121 636 769.613 633.494 758.936 628.481C748.478 623.469 740.634 615.95 735.405 605.926C730.176 595.683 727.561 582.934 727.561 567.679V514.394H716.45C709.477 514.394 704.03 512.542 700.108 508.837C696.404 505.132 694.552 499.793 694.552 492.819C694.552 485.846 696.404 480.615 700.108 477.128C704.03 473.423 709.477 471.571 716.45 471.571H727.561V451.303C727.561 441.714 730.067 434.414 735.078 429.401C740.09 424.389 747.28 421.883 756.649 421.883C766.018 421.883 773.208 424.389 778.219 429.401C783.23 434.414 785.736 441.714 785.736 451.303V471.571H812.535C819.725 471.571 825.172 473.423 828.876 477.128C832.798 480.615 834.759 485.846 834.759 492.819C834.759 499.793 832.798 505.132 828.876 508.837C825.172 512.542 819.725 514.394 812.535 514.394H785.736V565.717C785.736 573.781 787.588 579.774 791.292 583.697C795.214 587.401 801.314 589.254 809.594 589.254C812.644 589.254 815.586 588.927 818.418 588.273C821.25 587.619 823.865 587.292 826.262 587.292C829.748 587.074 832.58 588.164 834.759 590.561C836.938 592.741 838.027 597.862 838.027 605.926C838.027 612.463 837.047 618.021 835.086 622.597C833.125 626.956 829.639 630.116 824.628 632.077C821.577 633.167 817.438 634.039 812.208 634.692C806.979 635.564 802.731 636 799.462 636Z" fill="#0069CF"/>
<path d="M910.184 636C897.764 636 886.761 633.712 877.175 629.135C867.806 624.559 860.398 618.348 854.951 610.502C849.721 602.439 847.107 593.286 847.107 583.043C847.107 571.274 850.157 562.012 856.258 555.257C862.359 548.501 872.163 543.706 885.672 540.873C899.181 537.822 917.156 536.297 939.598 536.297H957.573V563.756H939.598C931.1 563.756 924.019 564.41 918.354 565.717C912.907 566.807 908.876 568.659 906.262 571.274C903.647 573.672 902.34 576.832 902.34 580.754C902.34 585.767 904.083 589.908 907.569 593.177C911.273 596.446 916.502 598.08 923.256 598.08C928.703 598.08 933.497 596.881 937.637 594.484C941.994 592.087 945.48 588.818 948.095 584.677C950.71 580.319 952.017 575.306 952.017 569.64V531.72C952.017 523.874 949.947 518.317 945.807 515.048C941.885 511.779 935.022 510.145 925.217 510.145C919.988 510.145 914.105 510.799 907.569 512.106C901.033 513.196 893.734 515.266 885.672 518.317C879.789 520.497 874.778 520.823 870.638 519.298C866.498 517.772 863.23 515.157 860.833 511.452C858.655 507.748 857.565 503.716 857.565 499.357C857.783 494.999 859.199 490.858 861.814 486.935C864.646 483.012 868.895 479.961 874.56 477.782C885.018 473.859 894.605 471.244 903.32 469.937C912.253 468.629 920.424 467.975 927.832 467.975C945.698 467.975 960.405 470.59 971.953 475.821C983.719 480.833 992.434 488.679 998.099 499.357C1003.98 509.818 1006.92 523.33 1006.92 539.892V605.926C1006.92 615.514 1004.64 622.815 1000.06 627.828C995.484 632.84 988.839 635.346 980.124 635.346C971.19 635.346 964.327 632.84 959.534 627.828C954.958 622.815 952.67 615.514 952.67 605.926V597.426L954.631 602.003C953.542 608.977 951.036 614.97 947.115 619.982C943.193 624.994 938.072 628.917 931.754 631.75C925.435 634.583 918.245 636 910.184 636Z" fill="#0069CF"/>
<path d="M1100.18 636C1086.24 636 1074.8 633.494 1065.87 628.481C1056.94 623.251 1050.18 615.514 1045.61 605.272C1041.25 595.029 1039.07 582.062 1039.07 566.371V497.723C1039.07 488.134 1041.57 480.942 1046.59 476.148C1051.6 471.135 1058.79 468.629 1068.16 468.629C1077.53 468.629 1084.72 471.135 1089.73 476.148C1094.74 480.942 1097.24 488.134 1097.24 497.723V568.006C1097.24 575.851 1098.88 581.735 1102.15 585.658C1105.41 589.581 1110.53 591.542 1117.51 591.542C1125.35 591.542 1131.78 588.709 1136.79 583.043C1141.8 577.377 1144.31 569.858 1144.31 560.487V497.723C1144.31 488.134 1146.81 480.942 1151.82 476.148C1156.83 471.135 1164.02 468.629 1173.39 468.629C1182.76 468.629 1189.95 471.135 1194.96 476.148C1199.97 480.942 1202.48 488.134 1202.48 497.723V605.926C1202.48 625.539 1193.11 635.346 1174.37 635.346C1165.22 635.346 1158.14 632.84 1153.13 627.828C1148.12 622.815 1145.61 615.514 1145.61 605.926V586.966L1150.84 602.983C1146.05 613.662 1139.29 621.834 1130.58 627.501C1122.08 633.167 1111.95 636 1100.18 636Z" fill="#0069CF"/>
<path d="M1324.58 635.346C1314.99 635.346 1307.58 632.731 1302.35 627.501C1297.12 622.052 1294.51 614.534 1294.51 604.945V450.977H1243.2C1235.14 450.977 1228.93 448.906 1224.57 444.766C1220.43 440.407 1218.36 434.305 1218.36 426.459C1218.36 418.396 1220.43 412.294 1224.57 408.153C1228.93 404.012 1235.14 401.942 1243.2 401.942H1405.95C1414.02 401.942 1420.12 404.012 1424.26 408.153C1428.61 412.294 1430.79 418.396 1430.79 426.459C1430.79 434.305 1428.61 440.407 1424.26 444.766C1420.12 448.906 1414.02 450.977 1405.95 450.977H1354.64V604.945C1354.64 614.534 1352.14 622.052 1347.13 627.501C1342.12 632.731 1334.6 635.346 1324.58 635.346Z" fill="#0069CF"/>
<path d="M1481.26 636C1467.32 636 1455.88 633.494 1446.95 628.481C1438.01 623.251 1431.26 615.514 1426.69 605.272C1422.33 595.029 1420.15 582.062 1420.15 566.371V497.723C1420.15 488.134 1422.65 480.942 1427.67 476.148C1432.68 471.135 1439.87 468.629 1449.24 468.629C1458.6 468.629 1465.79 471.135 1470.81 476.148C1475.82 480.942 1478.32 488.134 1478.32 497.723V568.006C1478.32 575.851 1479.96 581.735 1483.23 585.658C1486.49 589.581 1491.61 591.542 1498.59 591.542C1506.43 591.542 1512.86 588.709 1517.87 583.043C1522.88 577.377 1525.39 569.858 1525.39 560.487V497.723C1525.39 488.134 1527.89 480.942 1532.9 476.148C1537.91 471.135 1545.1 468.629 1554.47 468.629C1563.84 468.629 1571.03 471.135 1576.04 476.148C1581.05 480.942 1583.56 488.134 1583.56 497.723V605.926C1583.56 625.539 1574.19 635.346 1555.45 635.346C1546.3 635.346 1539.22 632.84 1534.21 627.828C1529.2 622.815 1526.69 615.514 1526.69 605.926V586.966L1531.92 602.983C1527.13 613.662 1520.37 621.834 1511.66 627.501C1503.16 633.167 1493.03 636 1481.26 636Z" fill="#0069CF"/>
<path d="M1678.53 636C1657.61 636 1642.14 630.443 1632.12 619.328C1622.32 607.996 1617.41 590.997 1617.41 568.332V428.421C1617.41 418.832 1619.92 411.531 1624.93 406.519C1629.94 401.506 1637.02 399 1646.17 399C1655.54 399 1662.73 401.506 1667.74 406.519C1672.97 411.531 1675.59 418.832 1675.59 428.421V566.371C1675.59 574.434 1677.11 580.319 1680.16 584.023C1683.43 587.728 1687.57 589.581 1692.58 589.581C1694.11 589.581 1695.63 589.472 1697.16 589.254C1698.9 588.818 1700.75 588.491 1702.71 588.273C1706.42 588.273 1709.14 589.69 1710.89 592.523C1712.85 595.356 1713.83 601.131 1713.83 609.848C1713.83 617.476 1712.3 623.251 1709.25 627.174C1706.2 630.879 1701.52 633.276 1695.2 634.366C1693.45 634.583 1690.95 634.91 1687.68 635.346C1684.41 635.782 1681.36 636 1678.53 636Z" fill="#0069CF"/>
<path d="M1786.92 636C1774.5 636 1763.5 633.712 1753.91 629.135C1744.54 624.559 1737.14 618.348 1731.69 610.502C1726.46 602.439 1723.85 593.286 1723.85 583.043C1723.85 571.274 1726.9 562.012 1733 555.257C1739.1 548.501 1748.9 543.706 1762.41 540.873C1775.92 537.822 1793.89 536.297 1816.34 536.297H1834.31V563.756H1816.34C1807.84 563.756 1800.76 564.41 1795.09 565.717C1789.65 566.807 1785.61 568.659 1783 571.274C1780.39 573.672 1779.08 576.832 1779.08 580.754C1779.08 585.767 1780.82 589.908 1784.31 593.177C1788.01 596.446 1793.24 598.08 1800 598.08C1805.44 598.08 1810.24 596.881 1814.38 594.484C1818.73 592.087 1822.22 588.818 1824.83 584.677C1827.45 580.319 1828.76 575.306 1828.76 569.64V531.72C1828.76 523.874 1826.69 518.317 1822.55 515.048C1818.62 511.779 1811.76 510.145 1801.96 510.145C1796.73 510.145 1790.84 510.799 1784.31 512.106C1777.77 513.196 1770.47 515.266 1762.41 518.317C1756.53 520.497 1751.52 520.823 1747.38 519.298C1743.24 517.772 1739.97 515.157 1737.57 511.452C1735.39 507.748 1734.3 503.716 1734.3 499.357C1734.52 494.999 1735.94 490.858 1738.55 486.935C1741.39 483.012 1745.63 479.961 1751.3 477.782C1761.76 473.859 1771.34 471.244 1780.06 469.937C1788.99 468.629 1797.16 467.975 1804.57 467.975C1822.44 467.975 1837.14 470.59 1848.69 475.821C1860.46 480.833 1869.17 488.679 1874.84 499.357C1880.72 509.818 1883.66 523.33 1883.66 539.892V605.926C1883.66 615.514 1881.37 622.815 1876.8 627.828C1872.22 632.84 1865.58 635.346 1856.86 635.346C1847.93 635.346 1841.07 632.84 1836.27 627.828C1831.7 622.815 1829.41 615.514 1829.41 605.926V597.426L1831.37 602.003C1830.28 608.977 1827.78 614.97 1823.85 619.982C1819.93 624.994 1814.81 628.917 1808.49 631.75C1802.17 634.583 1794.98 636 1786.92 636Z" fill="#0069CF"/>
<path d="M1946.53 635.346C1936.94 635.346 1929.53 632.84 1924.3 627.828C1919.29 622.815 1916.79 615.514 1916.79 605.926V497.723C1916.79 488.352 1919.18 481.16 1923.98 476.148C1928.99 471.135 1936.07 468.629 1945.22 468.629C1954.37 468.629 1961.34 471.135 1966.14 476.148C1970.93 481.16 1973.33 488.352 1973.33 497.723V511.126H1970.06C1972.24 498.05 1977.79 487.698 1986.73 480.07C1995.88 472.443 2007.21 468.411 2020.72 467.975C2027.04 467.757 2031.72 469.392 2034.77 472.879C2038.04 476.148 2039.78 482.359 2040 491.512C2040 499.357 2038.37 505.568 2035.1 510.145C2031.83 514.721 2025.62 517.446 2016.47 518.317L2008.95 518.971C1997.4 520.061 1989.02 523.33 1983.79 528.778C1978.56 534.008 1975.94 541.854 1975.94 552.314V605.926C1975.94 615.514 1973.44 622.815 1968.43 627.828C1963.41 632.84 1956.12 635.346 1946.53 635.346Z" fill="#0069CF"/>
</svg>
