<svg width="28" height="28" viewBox="0 0 28 28" fill="none" xmlns="http://www.w3.org/2000/svg">
<circle cx="14" cy="14" r="14" fill="#4CBC87"/>
<g clip-path="url(#clip0_1183_43848)">
<g clip-path="url(#clip1_1183_43848)" filter="url(#filter0_d_1183_43848)">
<path d="M14 22C16.1217 22 18.1566 21.1571 19.6569 19.6569C21.1571 18.1566 22 16.1217 22 14C22 11.8783 21.1571 9.84344 19.6569 8.34315C18.1566 6.84285 16.1217 6 14 6C11.8783 6 9.84344 6.84285 8.34315 8.34315C6.84285 9.84344 6 11.8783 6 14C6 16.1217 6.84285 18.1566 8.34315 19.6569C9.84344 21.1571 11.8783 22 14 22ZM13 12.5C13 13.328 12.552 14 12 14C11.448 14 11 13.328 11 12.5C11 11.672 11.448 11 12 11C12.552 11 13 11.672 13 12.5ZM10.285 15.567C10.3998 15.5007 10.5363 15.4827 10.6644 15.5171C10.7925 15.5514 10.9017 15.6352 10.968 15.75C11.2751 16.2823 11.7171 16.7244 12.2493 17.0316C12.7816 17.3388 13.3854 17.5004 14 17.5C14.6146 17.5004 15.2184 17.3388 15.7507 17.0316C16.2829 16.7244 16.7249 16.2823 17.032 15.75C17.0646 15.6927 17.1082 15.6424 17.1603 15.602C17.2124 15.5616 17.272 15.5319 17.3357 15.5146C17.3993 15.4973 17.4657 15.4928 17.5311 15.5013C17.5965 15.5098 17.6596 15.5311 17.7167 15.5641C17.7738 15.5971 17.8238 15.641 17.8638 15.6934C17.9039 15.7458 17.9332 15.8056 17.95 15.8693C17.9669 15.9331 17.971 15.9995 17.962 16.0649C17.9531 16.1302 17.9313 16.1931 17.898 16.25C17.5031 16.9344 16.9349 17.5026 16.2507 17.8976C15.5664 18.2926 14.7901 18.5004 14 18.5C13.2099 18.5004 12.4336 18.2926 11.7493 17.8976C11.0651 17.5026 10.4969 16.9344 10.102 16.25C10.0357 16.1352 10.0177 15.9987 10.0521 15.8706C10.0864 15.7425 10.1702 15.6333 10.285 15.567ZM16 14C15.448 14 15 13.328 15 12.5C15 11.672 15.448 11 16 11C16.552 11 17 11.672 17 12.5C17 13.328 16.552 14 16 14Z" fill="white"/>
</g>
</g>
<defs>
<filter id="filter0_d_1183_43848" x="2" y="4" width="24" height="24" filterUnits="userSpaceOnUse" color-interpolation-filters="sRGB">
<feFlood flood-opacity="0" result="BackgroundImageFix"/>
<feColorMatrix in="SourceAlpha" type="matrix" values="0 0 0 0 0 0 0 0 0 0 0 0 0 0 0 0 0 0 127 0" result="hardAlpha"/>
<feOffset dy="2"/>
<feGaussianBlur stdDeviation="2"/>
<feColorMatrix type="matrix" values="0 0 0 0 0 0 0 0 0 0 0 0 0 0 0 0 0 0 0.075 0"/>
<feBlend mode="normal" in2="BackgroundImageFix" result="effect1_dropShadow_1183_43848"/>
<feBlend mode="normal" in="SourceGraphic" in2="effect1_dropShadow_1183_43848" result="shape"/>
</filter>
<clipPath id="clip0_1183_43848">
<rect width="16" height="16" fill="white" transform="translate(6 6)"/>
</clipPath>
<clipPath id="clip1_1183_43848">
<rect width="16" height="16" fill="white" transform="translate(6 6)"/>
</clipPath>
</defs>
</svg>
