<svg width="28" height="28" viewBox="0 0 28 28" fill="none" xmlns="http://www.w3.org/2000/svg">
<circle cx="14" cy="14" r="14" fill="#E35D6A"/>
<g clip-path="url(#clip0_1183_43825)">
<g clip-path="url(#clip1_1183_43825)" filter="url(#filter0_d_1183_43825)">
<path d="M14 22C16.1217 22 18.1566 21.1571 19.6569 19.6569C21.1571 18.1566 22 16.1217 22 14C22 11.8783 21.1571 9.84344 19.6569 8.34315C18.1566 6.84285 16.1217 6 14 6C11.8783 6 9.84344 6.84285 8.34315 8.34315C6.84285 9.84344 6 11.8783 6 14C6 16.1217 6.84285 18.1566 8.34315 19.6569C9.84344 21.1571 11.8783 22 14 22ZM10.146 11.146C10.1924 11.0994 10.2476 11.0625 10.3084 11.0373C10.3691 11.0121 10.4342 10.9991 10.5 10.9991C10.5658 10.9991 10.6309 11.0121 10.6916 11.0373C10.7524 11.0625 10.8076 11.0994 10.854 11.146L11.5 11.793L12.146 11.146C12.1925 11.0995 12.2477 11.0626 12.3084 11.0375C12.3692 11.0123 12.4343 10.9994 12.5 10.9994C12.5657 10.9994 12.6308 11.0123 12.6916 11.0375C12.7523 11.0626 12.8075 11.0995 12.854 11.146C12.9005 11.1925 12.9374 11.2477 12.9625 11.3084C12.9877 11.3692 13.0006 11.4343 13.0006 11.5C13.0006 11.5657 12.9877 11.6308 12.9625 11.6916C12.9374 11.7523 12.9005 11.8075 12.854 11.854L12.207 12.5L12.854 13.146C12.9005 13.1925 12.9374 13.2477 12.9625 13.3084C12.9877 13.3692 13.0006 13.4343 13.0006 13.5C13.0006 13.5657 12.9877 13.6308 12.9625 13.6916C12.9374 13.7523 12.9005 13.8075 12.854 13.854C12.8075 13.9005 12.7523 13.9374 12.6916 13.9625C12.6308 13.9877 12.5657 14.0006 12.5 14.0006C12.4343 14.0006 12.3692 13.9877 12.3084 13.9625C12.2477 13.9374 12.1925 13.9005 12.146 13.854L11.5 13.207L10.854 13.854C10.8075 13.9005 10.7523 13.9374 10.6916 13.9625C10.6308 13.9877 10.5657 14.0006 10.5 14.0006C10.4343 14.0006 10.3692 13.9877 10.3084 13.9625C10.2477 13.9374 10.1925 13.9005 10.146 13.854C10.0995 13.8075 10.0626 13.7523 10.0375 13.6916C10.0123 13.6308 9.99937 13.5657 9.99937 13.5C9.99937 13.4343 10.0123 13.3692 10.0375 13.3084C10.0626 13.2477 10.0995 13.1925 10.146 13.146L10.793 12.5L10.146 11.854C10.0994 11.8076 10.0625 11.7524 10.0373 11.6916C10.0121 11.6309 9.99911 11.5658 9.99911 11.5C9.99911 11.4342 10.0121 11.3691 10.0373 11.3084C10.0625 11.2476 10.0994 11.1924 10.146 11.146ZM15.146 11.146C15.1924 11.0994 15.2476 11.0625 15.3084 11.0373C15.3691 11.0121 15.4342 10.9991 15.5 10.9991C15.5658 10.9991 15.6309 11.0121 15.6916 11.0373C15.7524 11.0625 15.8076 11.0994 15.854 11.146L16.5 11.793L17.146 11.146C17.2399 11.0521 17.3672 10.9994 17.5 10.9994C17.6328 10.9994 17.7601 11.0521 17.854 11.146C17.9479 11.2399 18.0006 11.3672 18.0006 11.5C18.0006 11.6328 17.9479 11.7601 17.854 11.854L17.207 12.5L17.854 13.146C17.9479 13.2399 18.0006 13.3672 18.0006 13.5C18.0006 13.6328 17.9479 13.7601 17.854 13.854C17.7601 13.9479 17.6328 14.0006 17.5 14.0006C17.3672 14.0006 17.2399 13.9479 17.146 13.854L16.5 13.207L15.854 13.854C15.8075 13.9005 15.7523 13.9374 15.6916 13.9625C15.6308 13.9877 15.5657 14.0006 15.5 14.0006C15.4343 14.0006 15.3692 13.9877 15.3084 13.9625C15.2477 13.9374 15.1925 13.9005 15.146 13.854C15.0995 13.8075 15.0626 13.7523 15.0375 13.6916C15.0123 13.6308 14.9994 13.5657 14.9994 13.5C14.9994 13.4343 15.0123 13.3692 15.0375 13.3084C15.0626 13.2477 15.0995 13.1925 15.146 13.146L15.793 12.5L15.146 11.854C15.0994 11.8076 15.0625 11.7524 15.0373 11.6916C15.0121 11.6309 14.9991 11.5658 14.9991 11.5C14.9991 11.4342 15.0121 11.3691 15.0373 11.3084C15.0625 11.2476 15.0994 11.1924 15.146 11.146ZM14 19C13.4696 19 12.9609 18.7893 12.5858 18.4142C12.2107 18.0391 12 17.5304 12 17C12 16.4696 12.2107 15.9609 12.5858 15.5858C12.9609 15.2107 13.4696 15 14 15C14.5304 15 15.0391 15.2107 15.4142 15.5858C15.7893 15.9609 16 16.4696 16 17C16 17.5304 15.7893 18.0391 15.4142 18.4142C15.0391 18.7893 14.5304 19 14 19Z" fill="white"/>
</g>
</g>
<defs>
<filter id="filter0_d_1183_43825" x="2" y="4" width="24" height="24" filterUnits="userSpaceOnUse" color-interpolation-filters="sRGB">
<feFlood flood-opacity="0" result="BackgroundImageFix"/>
<feColorMatrix in="SourceAlpha" type="matrix" values="0 0 0 0 0 0 0 0 0 0 0 0 0 0 0 0 0 0 127 0" result="hardAlpha"/>
<feOffset dy="2"/>
<feGaussianBlur stdDeviation="2"/>
<feColorMatrix type="matrix" values="0 0 0 0 0 0 0 0 0 0 0 0 0 0 0 0 0 0 0.075 0"/>
<feBlend mode="normal" in2="BackgroundImageFix" result="effect1_dropShadow_1183_43825"/>
<feBlend mode="normal" in="SourceGraphic" in2="effect1_dropShadow_1183_43825" result="shape"/>
</filter>
<clipPath id="clip0_1183_43825">
<rect width="16" height="16" fill="white" transform="translate(6 6)"/>
</clipPath>
<clipPath id="clip1_1183_43825">
<rect width="16" height="16" fill="white" transform="translate(6 6)"/>
</clipPath>
</defs>
</svg>
