<svg width="28" height="28" viewBox="0 0 28 28" fill="none" xmlns="http://www.w3.org/2000/svg">
<circle cx="14" cy="14" r="14" fill="#FFCD39"/>
<g clip-path="url(#clip0_1183_43837)">
<g clip-path="url(#clip1_1183_43837)" filter="url(#filter0_d_1183_43837)">
<path d="M14 22C16.1217 22 18.1566 21.1571 19.6569 19.6569C21.1571 18.1566 22 16.1217 22 14C22 11.8783 21.1571 9.84344 19.6569 8.34315C18.1566 6.84285 16.1217 6 14 6C11.8783 6 9.84344 6.84285 8.34315 8.34315C6.84285 9.84344 6 11.8783 6 14C6 16.1217 6.84285 18.1566 8.34315 19.6569C9.84344 21.1571 11.8783 22 14 22ZM13 12.5C13 13.328 12.552 14 12 14C11.448 14 11 13.328 11 12.5C11 11.672 11.448 11 12 11C12.552 11 13 11.672 13 12.5ZM10.285 18.433C10.1702 18.3667 10.0864 18.2575 10.0521 18.1294C10.0177 18.0013 10.0357 17.8648 10.102 17.75C10.4969 17.0656 11.0651 16.4974 11.7493 16.1024C12.4336 15.7074 13.2099 15.4996 14 15.5C14.7901 15.4998 15.5662 15.7077 16.2505 16.1027C16.9348 16.4976 17.503 17.0658 17.898 17.75C17.9633 17.8648 17.9805 18.0007 17.9459 18.1281C17.9113 18.2556 17.8277 18.3641 17.7133 18.4301C17.599 18.4962 17.4632 18.5143 17.3355 18.4805C17.2079 18.4468 17.0988 18.3639 17.032 18.25C16.7249 17.7177 16.2829 17.2756 15.7507 16.9684C15.2184 16.6612 14.6146 16.4996 14 16.5C13.3854 16.4996 12.7816 16.6612 12.2493 16.9684C11.7171 17.2756 11.2751 17.7177 10.968 18.25C10.9017 18.3648 10.7925 18.4486 10.6644 18.4829C10.5363 18.5173 10.3998 18.4993 10.285 18.433ZM16 14C15.448 14 15 13.328 15 12.5C15 11.672 15.448 11 16 11C16.552 11 17 11.672 17 12.5C17 13.328 16.552 14 16 14Z" fill="white"/>
</g>
</g>
<defs>
<filter id="filter0_d_1183_43837" x="2" y="4" width="24" height="24" filterUnits="userSpaceOnUse" color-interpolation-filters="sRGB">
<feFlood flood-opacity="0" result="BackgroundImageFix"/>
<feColorMatrix in="SourceAlpha" type="matrix" values="0 0 0 0 0 0 0 0 0 0 0 0 0 0 0 0 0 0 127 0" result="hardAlpha"/>
<feOffset dy="2"/>
<feGaussianBlur stdDeviation="2"/>
<feColorMatrix type="matrix" values="0 0 0 0 0 0 0 0 0 0 0 0 0 0 0 0 0 0 0.075 0"/>
<feBlend mode="normal" in2="BackgroundImageFix" result="effect1_dropShadow_1183_43837"/>
<feBlend mode="normal" in="SourceGraphic" in2="effect1_dropShadow_1183_43837" result="shape"/>
</filter>
<clipPath id="clip0_1183_43837">
<rect width="16" height="16" fill="white" transform="translate(6 6)"/>
</clipPath>
<clipPath id="clip1_1183_43837">
<rect width="16" height="16" fill="white" transform="translate(6 6)"/>
</clipPath>
</defs>
</svg>
